<?xml version="1.0" standalone="no"?>
<!DOCTYPE svg PUBLIC "-//W3C//DTD SVG 20010904//EN"
 "http://www.w3.org/TR/2001/REC-SVG-20010904/DTD/svg10.dtd">
<svg version="1.0" xmlns="http://www.w3.org/2000/svg"
 width="16.000000pt" height="16.000000pt" viewBox="0 0 16.000000 16.000000"
 preserveAspectRatio="xMidYMid meet">
<metadata>
Created by potrace 1.11, written by Peter Selinger 2001-2013
</metadata>
<g transform="translate(0.000000,16.000000) scale(0.002286,-0.002286)"
fill="#000000" stroke="none">
<path d="M3129 6648 c-5 -16 -9 -59 -14 -138 -4 -52 -8 -110 -10 -130 -2 -19
-6 -78 -10 -130 -10 -144 -13 -172 -20 -178 -3 -3 -374 -6 -823 -6 l-819 -1
-39 -30 c-181 -138 -443 -524 -574 -845 -12 -30 -28 -68 -35 -85 -37 -88 -105
-336 -120 -435 -36 -247 -36 -424 0 -587 9 -38 18 -78 20 -89 21 -91 124 -303
200 -409 24 -33 159 -175 300 -315 312 -310 417 -444 488 -620 35 -88 39 -110
43 -217 4 -116 -18 -200 -90 -343 -44 -88 -133 -229 -183 -290 -6 -8 -34 -42
-60 -74 -118 -147 -408 -438 -664 -667 -15 -13 -64 -58 -110 -100 -46 -42
-131 -118 -189 -169 -58 -51 -123 -109 -145 -129 -22 -20 -57 -51 -78 -68 -21
-18 -34 -33 -30 -34 4 -1 530 -2 1168 -3 l1160 -2 45 46 c341 348 701 802 888
1122 111 189 214 433 247 583 2 11 6 31 9 44 19 85 26 242 14 316 -4 28 -10
64 -12 80 -3 17 -14 60 -26 96 -58 189 -168 367 -325 525 -311 315 -528 538
-568 584 -140 163 -238 352 -267 519 -63 357 114 861 424 1205 37 42 81 86 97
97 l29 21 -5 -49 c-3 -26 -7 -59 -10 -73 -2 -14 -7 -54 -11 -90 -3 -36 -7 -72
-9 -80 -2 -8 -6 -44 -9 -80 -4 -36 -9 -76 -11 -90 -2 -14 -7 -50 -10 -80 -3
-30 -8 -71 -10 -90 -3 -19 -7 -55 -10 -80 -3 -25 -7 -61 -9 -80 -5 -35 -12
-98 -21 -177 -3 -24 -7 -62 -10 -85 -3 -24 -8 -63 -11 -88 -3 -25 -9 -76 -14
-115 -5 -38 -12 -101 -15 -140 l-6 -70 635 0 c426 0 636 -3 637 -10 2 -13 2
-10 -21 -122 -26 -124 -16 -79 -99 -488 -39 -192 -84 -417 -101 -500 -26 -123
-125 -608 -144 -705 -2 -14 -16 -79 -29 -145 -14 -66 -28 -133 -31 -150 -2
-16 -14 -75 -25 -130 -28 -133 -40 -194 -47 -230 -3 -16 -7 -34 -8 -40 -3 -12
-17 -82 -22 -108 -2 -10 -5 -26 -8 -35 -3 -9 -7 -33 -10 -52 -3 -19 -21 -109
-40 -200 -19 -91 -37 -176 -39 -190 -6 -33 -127 -629 -133 -655 -4 -17 -10
-46 -28 -142 -3 -13 0 -23 7 -24 85 -6 961 1 966 7 4 5 13 29 20 54 7 25 21
74 31 110 11 36 54 187 96 335 41 149 77 271 79 273 1 1 13 5 26 7 13 3 35 7
49 10 14 3 36 8 50 10 206 40 350 68 370 71 14 3 37 7 51 10 23 4 25 2 23 -24
-1 -16 -5 -103 -9 -193 -4 -90 -8 -191 -10 -224 -1 -33 -6 -141 -10 -240 -4
-99 -9 -183 -11 -187 -2 -4 1 -10 7 -14 9 -5 1070 -10 1135 -5 7 1 15 30 18
68 7 71 14 134 21 193 2 19 11 103 20 185 9 83 18 161 20 175 2 14 7 59 10
100 4 41 8 82 10 90 2 8 6 49 10 90 12 119 12 122 19 190 4 36 9 76 11 90 2
14 6 57 10 95 4 39 8 81 10 95 1 14 6 54 9 90 4 36 9 81 11 100 4 37 12 112
21 195 2 28 7 61 9 75 2 14 7 54 10 90 3 36 8 81 10 100 2 19 7 64 11 100 3
36 7 72 9 80 2 8 6 53 10 100 4 47 8 87 10 90 2 3 6 43 10 89 4 47 8 92 10
100 1 9 6 50 10 91 4 41 8 82 10 90 1 8 6 47 9 85 4 39 9 81 11 95 2 14 7 57
10 95 6 69 12 132 20 190 2 17 7 62 10 100 3 39 8 81 10 95 2 14 7 48 9 75 14
134 25 236 31 285 14 122 19 171 31 295 3 39 8 72 9 75 2 3 6 45 10 93 l7 87
-671 0 -671 0 -1 -27 c-4 -108 -11 -218 -18 -289 -1 -8 -27 -11 -83 -9 -90 3
-686 16 -885 19 -67 1 -125 4 -128 8 -5 5 11 112 41 268 2 14 7 41 10 60 2 19
7 46 10 60 2 14 6 36 9 50 2 14 16 90 30 170 14 80 28 161 31 180 3 19 8 46
10 60 3 14 14 77 25 140 25 138 22 119 54 305 14 83 28 159 30 170 3 11 7 36
10 55 2 19 7 46 9 60 3 14 12 66 21 115 8 50 17 101 20 115 2 14 18 104 35
200 16 96 32 183 34 193 4 16 -37 17 -750 17 -415 0 -754 -1 -755 -2z m2187
-2815 c-3 -10 -8 -54 -11 -98 -3 -44 -7 -105 -10 -135 -2 -30 -7 -93 -10 -140
-4 -47 -8 -105 -10 -130 -2 -25 -7 -83 -10 -130 -4 -47 -8 -107 -10 -135 -2
-27 -7 -86 -10 -130 -3 -44 -7 -100 -9 -125 -2 -25 -7 -90 -11 -145 -4 -55 -9
-118 -10 -140 -2 -22 -6 -80 -10 -130 -3 -49 -8 -106 -10 -125 -4 -46 -18
-230 -19 -253 0 -17 -8 -18 -96 -12 -52 3 -108 8 -125 10 -16 2 -57 7 -90 10
-33 4 -62 8 -64 11 -2 2 20 88 49 191 109 390 231 820 245 868 21 74 181 642
195 695 7 25 14 48 17 53 8 14 14 7 9 -10z"/>
</g>
</svg>
